
<svg xmlns="http://www.w3.org/2000/svg" id="prefix__download-on-the-app-store-apple" width="149.999" height="45" viewBox="0 0 149.999 45">
    <defs>
        <style>
            .prefix__cls-1{fill:#fff}
        </style>
    </defs>
    <path id="prefix__Path_737" d="M151.578 42.269a4.341 4.341 0 0 1-1.249 3.051 4.231 4.231 0 0 1-3.014 1.261H7.83a4.291 4.291 0 0 1-4.268-4.312V7.879A4.3 4.3 0 0 1 7.83 3.561h139.484a4.29 4.29 0 0 1 4.262 4.318v34.39z" class="prefix__cls-1" data-name="Path 737" transform="translate(-2.572 -2.572)"/>
    <path id="prefix__Path_738" d="M144.743 45H5.257A5.29 5.29 0 0 1 0 39.689V5.318A5.294 5.294 0 0 1 5.257 0h139.485A5.3 5.3 0 0 1 150 5.318v34.369A5.29 5.29 0 0 1 144.743 45z" data-name="Path 738" style="fill:#a6a6a6"/>
    <path id="prefix__Path_739" d="M151.578 42.269a4.341 4.341 0 0 1-1.249 3.051 4.231 4.231 0 0 1-3.014 1.261H7.83a4.291 4.291 0 0 1-4.268-4.312V7.879A4.3 4.3 0 0 1 7.83 3.561h139.484a4.29 4.29 0 0 1 4.262 4.318v34.39z" data-name="Path 739" transform="translate(-2.572 -2.572)"/>
    <path id="prefix__Path_740" d="M70.468 39.953a6.442 6.442 0 0 1 3.069-5.406 6.6 6.6 0 0 0-5.2-2.81c-2.187-.23-4.308 1.308-5.422 1.308-1.136 0-2.852-1.286-4.7-1.248a6.921 6.921 0 0 0-5.825 3.552c-2.519 4.36-.64 10.767 1.773 14.292 1.207 1.727 2.618 3.653 4.465 3.585 1.807-.073 2.481-1.15 4.661-1.15 2.16 0 2.794 1.15 4.677 1.107 1.939-.03 3.159-1.734 4.325-3.475a14.245 14.245 0 0 0 1.978-4.027 6.233 6.233 0 0 1-3.8-5.728zm-3.557-10.534a6.34 6.34 0 0 0 1.452-4.545 6.462 6.462 0 0 0-4.178 2.161 6.034 6.034 0 0 0-1.49 4.377 5.338 5.338 0 0 0 4.216-1.993z" class="prefix__cls-1" data-name="Path 740" transform="translate(-36.974 -17.727)"/>
    <g id="prefix__Group_2793" data-name="Group 2793" transform="translate(47.17 20.56)">
        <path id="prefix__Path_742" d="M182.3 87.025h-2.525l-1.383-4.345h-4.807l-1.317 4.345h-2.458l4.764-14.791h2.942zm-4.325-6.167L176.726 77q-.2-.592-.746-2.786h-.044q-.22.944-.7 2.786L174 80.858zm16.551.7a6.038 6.038 0 0 1-1.479 4.3 4.336 4.336 0 0 1-3.288 1.4 3.292 3.292 0 0 1-3.046-1.513v5.6h-2.37V79.866q0-1.709-.088-3.505h2.084l.132 1.69h.044a4.217 4.217 0 0 1 6.749-.419 5.9 5.9 0 0 1 1.264 3.93zm-2.415.087a4.4 4.4 0 0 0-.7-2.568 2.429 2.429 0 0 0-2.063-1.053 2.465 2.465 0 0 0-1.591.581 2.7 2.7 0 0 0-.933 1.526 3.092 3.092 0 0 0-.11.721v1.779a2.853 2.853 0 0 0 .714 1.965 2.37 2.37 0 0 0 1.854.8 2.429 2.429 0 0 0 2.084-1.031 4.538 4.538 0 0 0 .748-2.717zm14.685-.087a6.038 6.038 0 0 1-1.479 4.3 4.338 4.338 0 0 1-3.29 1.4 3.292 3.292 0 0 1-3.046-1.513v5.6h-2.37V79.866q0-1.709-.088-3.505h2.084l.132 1.69h.044a4.218 4.218 0 0 1 6.75-.419 5.9 5.9 0 0 1 1.267 3.93zm-2.416.087a4.4 4.4 0 0 0-.7-2.568 2.425 2.425 0 0 0-2.061-1.053 2.475 2.475 0 0 0-1.593.581 2.694 2.694 0 0 0-.932 1.526 3.165 3.165 0 0 0-.111.721v1.779a2.862 2.862 0 0 0 .713 1.965 2.375 2.375 0 0 0 1.857.8 2.427 2.427 0 0 0 2.084-1.031 4.538 4.538 0 0 0 .746-2.717zm16.134 1.228a3.95 3.95 0 0 1-1.314 3.077 5.83 5.83 0 0 1-4.03 1.295 7.036 7.036 0 0 1-3.831-.921l.548-1.975a6.6 6.6 0 0 0 3.424.922 3.231 3.231 0 0 0 2.084-.6 1.971 1.971 0 0 0 .748-1.612 2.065 2.065 0 0 0-.616-1.515 5.71 5.71 0 0 0-2.041-1.14q-3.885-1.449-3.887-4.237a3.74 3.74 0 0 1 1.372-2.984 5.425 5.425 0 0 1 3.633-1.164 7.181 7.181 0 0 1 3.358.7l-.595 1.932a5.873 5.873 0 0 0-2.843-.68 2.891 2.891 0 0 0-1.961.615 1.759 1.759 0 0 0-.595 1.34 1.811 1.811 0 0 0 .681 1.448 7.677 7.677 0 0 0 2.15 1.14 7.289 7.289 0 0 1 2.809 1.8 3.747 3.747 0 0 1 .9 2.565zm7.856-4.738h-2.613v5.178q0 1.976 1.383 1.974a4.165 4.165 0 0 0 1.053-.11l.066 1.8a5.371 5.371 0 0 1-1.843.262 2.841 2.841 0 0 1-2.2-.857 4.2 4.2 0 0 1-.79-2.875v-5.373h-1.556v-1.778h1.556V74.4l2.328-.7v2.655h2.613v1.783zm11.764 3.467a5.85 5.85 0 0 1-1.405 4.038 5.01 5.01 0 0 1-3.907 1.624 4.775 4.775 0 0 1-3.743-1.556 5.672 5.672 0 0 1-1.394-3.928 5.8 5.8 0 0 1 1.437-4.059A4.983 4.983 0 0 1 235 76.144a4.876 4.876 0 0 1 3.774 1.558 5.6 5.6 0 0 1 1.363 3.903zm-2.457.054a4.775 4.775 0 0 0-.635-2.516 2.346 2.346 0 0 0-2.13-1.27 2.38 2.38 0 0 0-2.173 1.27 4.853 4.853 0 0 0-.636 2.561 4.761 4.761 0 0 0 .636 2.517 2.431 2.431 0 0 0 4.283-.021 4.794 4.794 0 0 0 .655-2.541zm10.164-3.215a4.126 4.126 0 0 0-.747-.066 2.237 2.237 0 0 0-1.932.945 3.558 3.558 0 0 0-.591 2.106v5.6H242.2v-7.307q0-1.679-.069-3.358h2.069l.087 2.041h.066a3.658 3.658 0 0 1 1.185-1.69 2.866 2.866 0 0 1 1.713-.571 3.806 3.806 0 0 1 .593.043v2.261zm10.6 2.744a5.555 5.555 0 0 1-.087 1.075h-7.111a3.093 3.093 0 0 0 1.032 2.416 3.528 3.528 0 0 0 2.326.745 7.866 7.866 0 0 0 2.877-.5l.371 1.644a8.9 8.9 0 0 1-3.576.659 5.185 5.185 0 0 1-3.9-1.458 5.391 5.391 0 0 1-1.415-3.917 6.108 6.108 0 0 1 1.318-4.014 4.543 4.543 0 0 1 3.73-1.71 3.976 3.976 0 0 1 3.492 1.71 5.755 5.755 0 0 1 .947 3.353zm-2.26-.615a3.207 3.207 0 0 0-.46-1.822 2.07 2.07 0 0 0-1.888-.989 2.247 2.247 0 0 0-1.887.966 3.539 3.539 0 0 0-.7 1.843h4.936z" class="prefix__cls-1" data-name="Path 742" transform="translate(-169.812 -72.016)"/>
    </g>
    <g id="prefix__Group_2794" data-name="Group 2794" transform="translate(48.557 7.393)">
        <path id="prefix__Path_743" d="M176.511 33.93a15.138 15.138 0 0 1-1.7-.087v-7.15a12.906 12.906 0 0 1 2.007-.151c2.718 0 3.97 1.337 3.97 3.517-.005 2.513-1.488 3.871-4.277 3.871zm.4-6.472a4.756 4.756 0 0 0-.938.076v5.436a6.153 6.153 0 0 0 .787.032 2.576 2.576 0 0 0 2.795-2.912 2.372 2.372 0 0 0-2.646-2.632zm7.775 6.526a2.5 2.5 0 0 1-2.525-2.7 2.553 2.553 0 0 1 2.611-2.772A2.475 2.475 0 0 1 187.3 31.2a2.568 2.568 0 0 1-2.616 2.785zm.044-4.617c-.842 0-1.381.787-1.381 1.887 0 1.079.55 1.866 1.37 1.866s1.37-.841 1.37-1.888c0-1.067-.539-1.865-1.359-1.865zm11.3-.744l-1.64 5.241h-1.068l-.679-2.276a17.253 17.253 0 0 1-.421-1.693h-.022a11.343 11.343 0 0 1-.42 1.693l-.723 2.276h-1.079l-1.543-5.241h1.2l.594 2.492q.21.89.356 1.683h.022c.086-.441.226-.992.431-1.672l.745-2.5h.949l.713 2.448c.172.593.312 1.176.421 1.726h.031a15.088 15.088 0 0 1 .356-1.726l.637-2.448h1.144zm6.037 5.241H200.9v-3.01c0-.927-.356-1.391-1.057-1.391a1.21 1.21 0 0 0-1.165 1.284v3.118h-1.165v-3.742c0-.463-.011-.96-.043-1.5h1.03l.054.809h.032a1.883 1.883 0 0 1 1.662-.916c1.1 0 1.823.841 1.823 2.211v3.139zm3.213 0h-1.166v-7.645h1.166zm4.248.119a2.5 2.5 0 0 1-2.525-2.7 2.553 2.553 0 0 1 2.61-2.772 2.475 2.475 0 0 1 2.525 2.686 2.567 2.567 0 0 1-2.61 2.788zm.043-4.617c-.842 0-1.381.787-1.381 1.887 0 1.079.551 1.866 1.369 1.866s1.37-.841 1.37-1.888c0-1.067-.537-1.865-1.357-1.865zm7.161 4.5l-.084-.6h-.031a1.79 1.79 0 0 1-1.533.722 1.524 1.524 0 0 1-1.606-1.543c0-1.294 1.122-1.963 3.064-1.963v-.1c0-.69-.366-1.036-1.088-1.036a2.454 2.454 0 0 0-1.37.389l-.237-.766a3.352 3.352 0 0 1 1.8-.453c1.37 0 2.061.722 2.061 2.168v1.931a7.916 7.916 0 0 0 .076 1.251zm-.16-2.611c-1.294 0-1.943.313-1.943 1.057a.743.743 0 0 0 .8.819 1.116 1.116 0 0 0 1.144-1.067zm6.793 2.611l-.054-.841h-.032a1.758 1.758 0 0 1-1.683.96c-1.264 0-2.2-1.111-2.2-2.675 0-1.639.971-2.794 2.3-2.794a1.575 1.575 0 0 1 1.479.712h.023v-3.009h1.166v6.234c0 .507.012.981.043 1.413h-1.037zm-.172-3.084a1.268 1.268 0 0 0-1.227-1.359c-.864 0-1.392.766-1.392 1.844 0 1.057.548 1.78 1.369 1.78a1.308 1.308 0 0 0 1.251-1.391v-.874zm8.56 3.2a2.5 2.5 0 0 1-2.524-2.7 2.553 2.553 0 0 1 2.61-2.772 2.475 2.475 0 0 1 2.525 2.686 2.567 2.567 0 0 1-2.611 2.782zm.043-4.617c-.84 0-1.38.787-1.38 1.887 0 1.079.55 1.866 1.369 1.866s1.37-.841 1.37-1.888c0-1.067-.537-1.865-1.359-1.865zm8.834 4.5h-1.166v-3.01c0-.927-.356-1.391-1.057-1.391a1.209 1.209 0 0 0-1.164 1.284v3.118h-1.166v-3.743c0-.463-.011-.96-.043-1.5h1.025l.054.809h.032a1.882 1.882 0 0 1 1.661-.917c1.1 0 1.824.841 1.824 2.211zm7.839-4.368h-1.282v2.545c0 .648.225.971.678.971a2.3 2.3 0 0 0 .517-.054l.032.885a2.581 2.581 0 0 1-.9.13c-.918 0-1.467-.507-1.467-1.834V29.5h-.765v-.874h.765v-.96l1.144-.346v1.3h1.282v.88zm6.168 4.368h-1.164v-2.987c0-.938-.355-1.413-1.057-1.413a1.143 1.143 0 0 0-1.166 1.24v3.16h-1.164v-7.646h1.164v3.149h.023a1.768 1.768 0 0 1 1.576-.852c1.109 0 1.788.862 1.788 2.233v3.118zm6.319-2.341h-3.5a1.5 1.5 0 0 0 1.652 1.553 3.938 3.938 0 0 0 1.413-.248l.181.809a4.377 4.377 0 0 1-1.759.323 2.434 2.434 0 0 1-2.61-2.642 2.56 2.56 0 0 1 2.479-2.815A2.2 2.2 0 0 1 261 31a2.243 2.243 0 0 1-.04.528zm-1.068-.83c0-.809-.408-1.38-1.153-1.38a1.382 1.382 0 0 0-1.274 1.38z" class="prefix__cls-1" data-name="Path 743" transform="translate(-174.806 -26.219)"/>
    </g>
</svg>
