<svg xmlns="http://www.w3.org/2000/svg" width="16.802" height="15.661" viewBox="0 0 16.802 15.661">
    <defs>
        <style>
            .cls-1{fill:#0a0c0d;stroke:#0a0c0d;stroke-width:.5px}
        </style>
    </defs>
    <g id="Language_Change" data-name="Language Change" transform="translate(.351 .25)">
        <g id="Google_Translate_logo" transform="translate(-5.228 -4.692)">
            <g id="Group_741" data-name="Group 741" transform="translate(-8771 -4804)">
                <path id="Path_387" d="M6.825-.947h-4.3L1.56 1.731H.164L4.083-8.531h1.184L9.193 1.731H7.8zM2.934-2.061h3.489l-1.748-4.8z" class="cls-1" data-name="Path 387" transform="translate(8783.122 4822.122)"/>
                <path id="Path_386" d="M1.15-1.145l-.688.688A3.316 3.316 0 0 0 2.844.549 2.273 2.273 0 0 0 5.331-1.7a2.578 2.578 0 0 0-.031-.332 2.287 2.287 0 0 0 1 .212 2.164 2.164 0 0 0 .887-.185v3.44H8.19v-7.648h1.6v-.847H5.768v.847h1.416v3.255a2.16 2.16 0 0 1-1.138.278 2.441 2.441 0 0 1-1.257-.331 1.894 1.894 0 0 0-.781-.423v-.053a1.833 1.833 0 0 0 .94-1.613 1.956 1.956 0 0 0-2.13-1.972 2.33 2.33 0 0 0-1.879.847l.7.635a1.337 1.337 0 0 1 1.151-.582 1.067 1.067 0 0 1 1.152 1.137 1.249 1.249 0 0 1-1.376 1.283h-.41v.887h.714c.939 0 1.456.437 1.456 1.178A1.324 1.324 0 0 1 2.844-.338a2.207 2.207 0 0 1-1.694-.807z" class="cls-1" data-name="Path 386" transform="translate(8775.766 4815.765)"/>
            </g>
        </g>
    </g>
</svg>