<svg xmlns="http://www.w3.org/2000/svg" width="16.802" height="15.661" viewBox="0 0 16.802 15.661">
  <defs>
    <style>
      .cls-1 {
        fill: #f7f5f5;
        stroke: #f7f5f5;
        stroke-width: 0.5px;
      }
    </style>
  </defs>
  <g id="Google_Translate_logo" transform="translate(-4.877 -4.442)">
    <g id="Group_741" data-name="Group 741" transform="translate(-8771 -4804)">
      <path id="Path_387" data-name="Path 387" class="cls-1" d="M6.825-.947h-4.3L1.56,1.731H.164L4.083-8.531H5.267L9.193,1.731H7.8ZM2.934-2.061H6.423l-1.748-4.8Z" transform="translate(8783.122 4822.122)"/>
      <path id="Path_386" data-name="Path 386" class="cls-1" d="M1.15-1.145.462-.457A3.316,3.316,0,0,0,2.844.549,2.273,2.273,0,0,0,5.331-1.7,2.578,2.578,0,0,0,5.3-2.032,2.287,2.287,0,0,0,6.3-1.82a2.164,2.164,0,0,0,.887-.185v3.44H8.19V-6.213h1.6V-7.06H5.768v.847H7.184v3.255a2.16,2.16,0,0,1-1.138.278,2.441,2.441,0,0,1-1.257-.331,1.894,1.894,0,0,0-.781-.423v-.053A1.833,1.833,0,0,0,4.948-5.1a1.956,1.956,0,0,0-2.13-1.972,2.33,2.33,0,0,0-1.879.847l.7.635a1.337,1.337,0,0,1,1.151-.582A1.067,1.067,0,0,1,3.942-5.035,1.249,1.249,0,0,1,2.566-3.752h-.41v.887H2.87c.939,0,1.456.437,1.456,1.178A1.324,1.324,0,0,1,2.844-.338,2.207,2.207,0,0,1,1.15-1.145Z" transform="translate(8775.766 4815.765)"/>
    </g>
  </g>
</svg>