<svg xmlns="http://www.w3.org/2000/svg" width="190.969" height="36" viewBox="0 0 190.969 36">
    <defs>
        <style>
            .cls-1{fill:#040505}.cls-2{fill:#e4001b}.cls-3{fill:#e1051d}.cls-4{fill:#c40b1e}
        </style>
    </defs>
    <g id="Wynklogo-Horiz-big" transform="translate(-121.016 -1069.939)">
        <g id="Horiz-long-colour-trans" transform="translate(121.016 1069.939)">
            <path id="MUSIC" d="M1155.817 1170.2v14.069a.99.99 0 0 1-.309.838 1.374 1.374 0 0 1-.847.234 1.315 1.315 0 0 1-.833-.234 1.015 1.015 0 0 1-.3-.838v-16.955a1.315 1.315 0 0 1 .417-1.113 2.33 2.33 0 0 1 2.244-.055 1.8 1.8 0 0 1 .564.783l6.289 15.361 6.289-15.361a1.862 1.862 0 0 1 .551-.783 2.2 2.2 0 0 1 2.177.055 1.363 1.363 0 0 1 .39 1.113v16.955a1.015 1.015 0 0 1-.3.838 1.315 1.315 0 0 1-.833.234 1.373 1.373 0 0 1-.846-.234.99.99 0 0 1-.309-.838v-14.1l-5.805 14.014a1.738 1.738 0 0 1-.484.66 1.569 1.569 0 0 1-1.774 0 1.739 1.739 0 0 1-.484-.66zm33.487-3.188a1.07 1.07 0 0 1 .309-.879 1.366 1.366 0 0 1 .873-.247 1.425 1.425 0 0 1 .887.247 1.046 1.046 0 0 1 .323.879v11.184a8.925 8.925 0 0 1-.484 3.009 6.409 6.409 0 0 1-1.424 2.336 6.49 6.49 0 0 1-2.338 1.525 8.768 8.768 0 0 1-3.225.55 8.662 8.662 0 0 1-3.212-.55 6.516 6.516 0 0 1-2.325-1.525 6.41 6.41 0 0 1-1.424-2.336 8.925 8.925 0 0 1-.484-3.009v-11.184a1.046 1.046 0 0 1 .323-.879 1.425 1.425 0 0 1 .887-.247 1.366 1.366 0 0 1 .874.247 1.071 1.071 0 0 1 .309.879V1178a5.625 5.625 0 0 0 1.344 4.108 5.791 5.791 0 0 0 7.458 0 5.662 5.662 0 0 0 1.33-4.108zm14.862 7.8a7.381 7.381 0 0 1 3.427 1.937 4.8 4.8 0 0 1 1.088 3.311 5.519 5.519 0 0 1-.524 2.5 5.046 5.046 0 0 1-1.4 1.731 5.658 5.658 0 0 1-2.016 1 8.772 8.772 0 0 1-2.352.316 12.814 12.814 0 0 1-3.857-.577 7.044 7.044 0 0 1-3.131-1.978 1.71 1.71 0 0 1-.417-.646 1.941 1.941 0 0 1-.067-.481 1.051 1.051 0 0 1 .4-.8 1.25 1.25 0 0 1 .833-.357.882.882 0 0 1 .43.165 2.784 2.784 0 0 1 .349.3 7.2 7.2 0 0 0 2.553 1.827 7.956 7.956 0 0 0 2.849.481 4.7 4.7 0 0 0 2.835-.811 2.754 2.754 0 0 0 1.115-2.377 2.915 2.915 0 0 0-.806-2.171 6.374 6.374 0 0 0-2.661-1.347l-2.338-.687a8.592 8.592 0 0 1-3.722-1.923 4.54 4.54 0 0 1-1.223-3.38 4.606 4.606 0 0 1 .578-2.363 5.107 5.107 0 0 1 1.505-1.635 6.538 6.538 0 0 1 2.043-.948 8.445 8.445 0 0 1 2.217-.3 9.517 9.517 0 0 1 3.48.632 6.36 6.36 0 0 1 2.755 2.088 2.333 2.333 0 0 1 .3.522 1.264 1.264 0 0 1 .081.44.972.972 0 0 1-.349.769 1.131 1.131 0 0 1-.752.3 1.028 1.028 0 0 1-.5-.124 2.352 2.352 0 0 1-.524-.426 6.6 6.6 0 0 0-2.069-1.649 5.677 5.677 0 0 0-2.446-.495 5.446 5.446 0 0 0-1.451.192 4.033 4.033 0 0 0-1.25.577 2.958 2.958 0 0 0-.887.976 2.7 2.7 0 0 0-.336 1.36 2.877 2.877 0 0 0 .148.948 2.273 2.273 0 0 0 .511.811 3.674 3.674 0 0 0 1.008.715 10.439 10.439 0 0 0 1.612.632zm8.089-7.8a1.07 1.07 0 0 1 .309-.879 1.665 1.665 0 0 1 1.747 0 1.07 1.07 0 0 1 .309.879v17.2a1.07 1.07 0 0 1-.309.879 1.666 1.666 0 0 1-1.747 0 1.07 1.07 0 0 1-.309-.879zm19.942 13.108a2.5 2.5 0 0 1 .47-.646.83.83 0 0 1 .578-.206 1.781 1.781 0 0 1 .806.22.839.839 0 0 1 .43.824 2.812 2.812 0 0 1-.417 1.305 8.34 8.34 0 0 1-.9 1.333q-.188.22-.658.673a6.305 6.305 0 0 1-1.236.893 9.184 9.184 0 0 1-1.814.77 8.073 8.073 0 0 1-2.419.33 8.889 8.889 0 0 1-3.615-.715 8.007 8.007 0 0 1-2.781-2.006 9.018 9.018 0 0 1-1.787-3.133 13.811 13.811 0 0 1 0-8.258 9.148 9.148 0 0 1 1.787-3.16 7.927 7.927 0 0 1 2.781-2.02 8.889 8.889 0 0 1 3.615-.714 8.247 8.247 0 0 1 2.338.3 8.874 8.874 0 0 1 1.747.7 5.892 5.892 0 0 1 1.182.824q.457.426.672.673a9.765 9.765 0 0 1 .927 1.333 2.694 2.694 0 0 1 .443 1.305.834.834 0 0 1-.443.824 1.864 1.864 0 0 1-.82.22.83.83 0 0 1-.578-.206 2.013 2.013 0 0 1-.417-.563 8.367 8.367 0 0 0-.726-1.113 5.789 5.789 0 0 0-1.021-1.031 5.147 5.147 0 0 0-1.4-.769 5.35 5.35 0 0 0-1.881-.3 6.027 6.027 0 0 0-2.7.577 5.659 5.659 0 0 0-1.975 1.607 7.041 7.041 0 0 0-1.209 2.473 12.586 12.586 0 0 0 0 6.32 7.04 7.04 0 0 0 1.209 2.473 5.657 5.657 0 0 0 1.975 1.608 6.029 6.029 0 0 0 2.7.577 5.574 5.574 0 0 0 2.069-.344 5.046 5.046 0 0 0 2.419-1.937q.38-.575.652-1.043z" class="cls-1" transform="translate(-1043.512 -1154.938)"/>
            <path id="WYNK" d="M460.072 1170.89a4.6 4.6 0 0 1-.166-1.049 1.378 1.378 0 0 1 .51-1.131 2.15 2.15 0 0 1 1.394-.414 1.833 1.833 0 0 1 1.228.331 1.744 1.744 0 0 1 .511.966l2.925 13.413 2.87-13.275a1.542 1.542 0 0 1 .773-1.159 2.852 2.852 0 0 1 1.242-.276 2.25 2.25 0 0 1 1.173.3 1.809 1.809 0 0 1 .731 1.187l2.925 13.22 2.981-13.5a1.444 1.444 0 0 1 1.573-1.214 1.865 1.865 0 0 1 1.352.455 1.5 1.5 0 0 1 .469 1.118 4.149 4.149 0 0 1-.166 1.076l-4.112 15.538a1.639 1.639 0 0 1-.8 1.049 2.814 2.814 0 0 1-1.325.3 2.544 2.544 0 0 1-1.5-.386 1.677 1.677 0 0 1-.676-1.076l-2.732-12.115-2.76 12.2a1.482 1.482 0 0 1-.745 1.076 2.875 2.875 0 0 1-1.352.3 2.351 2.351 0 0 1-1.477-.4 2.036 2.036 0 0 1-.7-1.09zm28.592 8.362l-5.161-8.169a2.208 2.208 0 0 1-.386-1.187 1.529 1.529 0 0 1 1.711-1.6 1.592 1.592 0 0 1 1.09.331 3.526 3.526 0 0 1 .649.773l3.947 6.6 3.864-6.32a6.224 6.224 0 0 1 .7-.966 1.391 1.391 0 0 1 1.09-.414 1.976 1.976 0 0 1 1.228.386 1.245 1.245 0 0 1 .511 1.049 2.253 2.253 0 0 1-.1.593 2.064 2.064 0 0 1-.262.593l-5.409 8.335v6.983a1.779 1.779 0 0 1-.373 1.118 1.6 1.6 0 0 1-1.338.483q-1.766 0-1.766-1.6zm11.15-9.162a1.685 1.685 0 0 1 .511-1.366 1.93 1.93 0 0 1 1.283-.428 2.251 2.251 0 0 1 1.021.235 2.576 2.576 0 0 1 .938 1.007l7.01 12.116V1169.9a1.519 1.519 0 0 1 .441-1.242 1.92 1.92 0 0 1 1.242-.359 1.991 1.991 0 0 1 1.242.359 1.471 1.471 0 0 1 .469 1.242v16.173a3.618 3.618 0 0 1-.055.621 1.456 1.456 0 0 1-.221.566 1.252 1.252 0 0 1-.5.414 2.065 2.065 0 0 1-.911.166 2.144 2.144 0 0 1-1.877-1.159l-7.176-11.646v11.177a1.992 1.992 0 0 1-.331 1.131 1.49 1.49 0 0 1-1.325.5 1.947 1.947 0 0 1-1.352-.386 1.63 1.63 0 0 1-.414-1.242zm17.746-.249a1.381 1.381 0 0 1 .483-1.187 2.1 2.1 0 0 1 1.283-.359 2 2 0 0 1 1.228.359 1.381 1.381 0 0 1 .483 1.187v6.706l6.237-7.258a5.535 5.535 0 0 1 .7-.69 1.374 1.374 0 0 1 .9-.3 1.508 1.508 0 0 1 .648.124 2.166 2.166 0 0 1 .511.345 2.216 2.216 0 0 1 .4.538 1.439 1.439 0 0 1 .152.676 1.593 1.593 0 0 1-.166.662 2.6 2.6 0 0 1-.442.662l-4.388 5.051 5.575 8.942a1.55 1.55 0 0 1 .248.856 1.668 1.668 0 0 1-.469 1.187 1.771 1.771 0 0 1-1.352.5 1.516 1.516 0 0 1-.966-.3 2.853 2.853 0 0 1-.69-.828l-4.885-7.838-2.015 2.318v5.023a1.883 1.883 0 0 1-.359 1.131 1.571 1.571 0 0 1-1.352.5 1.947 1.947 0 0 1-1.352-.386 1.63 1.63 0 0 1-.414-1.242z" class="cls-2" transform="translate(-423.754 -1157.159)"/>
            <g id="wynk-logo">
                <g id="Group_469" data-name="Group 469">
                    <path id="Fill-4" d="M177.722 1135.519l-.19 1.729a12.926 12.926 0 1 1-8.694-3.389 12.755 12.755 0 0 1 3.926.618l.161-1.422a14.609 14.609 0 0 0-4.144-.6 14.388 14.388 0 0 0-14.461 14.345 14.681 14.681 0 0 0 14.518 14.4 14.486 14.486 0 0 0 14.41-14.4 14.26 14.26 0 0 0-5.526-11.286" class="cls-3" transform="translate(-150.713 -1125.202)"/>
                    <path id="Fill-6" d="M209.618 1171.925l-.308 2.8a8.585 8.585 0 0 1 .815 3.633 9 9 0 0 1-8.873 8.865 8.9 8.9 0 0 1-8.873-8.865 9 9 0 0 1 8.873-8.865 8.6 8.6 0 0 1 3.468.737l.2-1.811a10.214 10.214 0 0 0-3.675-.686 10.547 10.547 0 1 0 10.607 10.526 10.365 10.365 0 0 0-2.238-6.336" class="cls-3" transform="translate(-183.154 -1156.658)"/>
                    <path id="Fill-1" d="M122.323 1117.069a16.749 16.749 0 0 1 16.617-16.8h.153v-1.163h-.153a17.959 17.959 0 0 0-17.924 17.958z" class="cls-3" transform="translate(-121.016 -1095.952)"/>
                    <path id="Fill-8" d="M255.256 1069.939l-2.046 18.276a6.479 6.479 0 0 0-5.721-1.033c-3.146.908-3.416 3.311-3.418 3.875 0 1.072.8 3.953 4.634 4.566 4.6.613 5.8-2.206 5.989-3.187.244-.956 1.38-11.487 1.38-11.487l.613-5.775s3.248-.13 4.781 1.4a3.866 3.866 0 0 1 .682 4.179c-.224.655-.75 1.282-.09 1.076a4.354 4.354 0 0 0 1.885-2.672 4.942 4.942 0 0 0-2.046-4.444c-.307-.306-2.919-1.862-3.357-2.3a3.237 3.237 0 0 1-1.089-2.1z" class="cls-4" transform="translate(-230.743 -1069.939)"/>
                </g>
            </g>
        </g>
    </g>
</svg>
