<svg xmlns="http://www.w3.org/2000/svg" width="120.511" height="22.794" viewBox="0 0 120.511 22.794">
  <defs>
    <style>
      .cls-1 {
        fill: #f7f5f5;
      }

      .cls-2 {
        fill: #fa3235;
      }
    </style>
  </defs>
  <g id="Wynklogo-Horiz-big" transform="translate(-121.016 -1069.939)">
    <g id="Horiz-long-colour-trans" transform="translate(121.016 1069.939)">
      <path id="MUSIC" class="cls-1" d="M1154.977,1168.515v8.908a.627.627,0,0,1-.2.531.866.866,0,0,1-.535.148.829.829,0,0,1-.527-.148.643.643,0,0,1-.187-.531v-10.735a.833.833,0,0,1,.263-.7,1.469,1.469,0,0,1,1.418-.035,1.142,1.142,0,0,1,.357.5l3.974,9.726,3.974-9.726a1.178,1.178,0,0,1,.348-.5,1.388,1.388,0,0,1,1.375.035.864.864,0,0,1,.246.7v10.735a.643.643,0,0,1-.187.531.828.828,0,0,1-.526.148.865.865,0,0,1-.535-.148.627.627,0,0,1-.2-.531V1168.5l-3.668,8.873a1.1,1.1,0,0,1-.306.418.99.99,0,0,1-1.121,0,1.1,1.1,0,0,1-.306-.418Zm21.16-2.018a.678.678,0,0,1,.2-.557.862.862,0,0,1,.552-.157.9.9,0,0,1,.56.157.663.663,0,0,1,.2.557v7.081a5.662,5.662,0,0,1-.306,1.905,4.06,4.06,0,0,1-.9,1.479,4.1,4.1,0,0,1-1.477.966,5.533,5.533,0,0,1-2.038.348,5.466,5.466,0,0,1-2.029-.348,4.122,4.122,0,0,1-1.469-.966,4.059,4.059,0,0,1-.9-1.479,5.659,5.659,0,0,1-.306-1.905V1166.5a.663.663,0,0,1,.2-.557.9.9,0,0,1,.56-.157.861.861,0,0,1,.552.157.678.678,0,0,1,.2.557v6.96a3.566,3.566,0,0,0,.849,2.6,3.654,3.654,0,0,0,4.713,0,3.589,3.589,0,0,0,.841-2.6Zm9.391,4.941a4.661,4.661,0,0,1,2.165,1.227,3.042,3.042,0,0,1,.688,2.1,3.5,3.5,0,0,1-.331,1.583,3.2,3.2,0,0,1-.883,1.1,3.58,3.58,0,0,1-1.274.635,5.535,5.535,0,0,1-1.486.2,8.081,8.081,0,0,1-2.437-.365,4.451,4.451,0,0,1-1.978-1.253,1.083,1.083,0,0,1-.263-.409,1.224,1.224,0,0,1-.042-.3.665.665,0,0,1,.255-.5.789.789,0,0,1,.526-.226.558.558,0,0,1,.272.1,1.8,1.8,0,0,1,.221.191,4.544,4.544,0,0,0,1.613,1.157,5.016,5.016,0,0,0,1.8.3,2.965,2.965,0,0,0,1.792-.513,1.745,1.745,0,0,0,.7-1.5,1.848,1.848,0,0,0-.51-1.375,4.025,4.025,0,0,0-1.681-.853l-1.478-.435a5.426,5.426,0,0,1-2.352-1.218,2.877,2.877,0,0,1-.773-2.14,2.921,2.921,0,0,1,.365-1.5,3.231,3.231,0,0,1,.951-1.035,4.126,4.126,0,0,1,1.291-.6,5.328,5.328,0,0,1,1.4-.192,6,6,0,0,1,2.2.4,4.018,4.018,0,0,1,1.741,1.322,1.47,1.47,0,0,1,.187.331.8.8,0,0,1,.051.278.616.616,0,0,1-.221.487.713.713,0,0,1-.475.191.649.649,0,0,1-.314-.078,1.494,1.494,0,0,1-.331-.27,4.179,4.179,0,0,0-1.308-1.044,3.581,3.581,0,0,0-1.546-.313,3.439,3.439,0,0,0-.917.122,2.55,2.55,0,0,0-.79.365,1.872,1.872,0,0,0-.561.618,1.714,1.714,0,0,0-.212.861,1.826,1.826,0,0,0,.093.6,1.438,1.438,0,0,0,.323.513,2.321,2.321,0,0,0,.637.453,6.6,6.6,0,0,0,1.019.4Zm5.112-4.941a.678.678,0,0,1,.2-.557,1.05,1.05,0,0,1,1.1,0,.679.679,0,0,1,.2.557v10.891a.679.679,0,0,1-.2.557,1.052,1.052,0,0,1-1.1,0,.679.679,0,0,1-.2-.557Zm12.6,8.3a1.582,1.582,0,0,1,.3-.409.523.523,0,0,1,.365-.13,1.121,1.121,0,0,1,.509.139.531.531,0,0,1,.272.522,1.783,1.783,0,0,1-.263.827,5.275,5.275,0,0,1-.569.844q-.119.139-.416.426a3.979,3.979,0,0,1-.781.565,5.8,5.8,0,0,1-1.146.487,5.093,5.093,0,0,1-1.528.209,5.6,5.6,0,0,1-2.284-.453,5.06,5.06,0,0,1-1.758-1.27,5.713,5.713,0,0,1-1.129-1.984,8.759,8.759,0,0,1,0-5.228,5.8,5.8,0,0,1,1.129-2,5.007,5.007,0,0,1,1.758-1.279,5.608,5.608,0,0,1,2.284-.453,5.2,5.2,0,0,1,1.477.192,5.6,5.6,0,0,1,1.1.444,3.727,3.727,0,0,1,.747.522q.289.27.425.426a6.2,6.2,0,0,1,.586.844,1.707,1.707,0,0,1,.28.826.528.528,0,0,1-.28.522,1.177,1.177,0,0,1-.518.139.524.524,0,0,1-.365-.131,1.277,1.277,0,0,1-.263-.356,5.282,5.282,0,0,0-.459-.7,3.662,3.662,0,0,0-.645-.652,3.255,3.255,0,0,0-.883-.487A3.373,3.373,0,0,0,1200,1167a3.8,3.8,0,0,0-1.707.365,3.575,3.575,0,0,0-1.248,1.018,4.463,4.463,0,0,0-.764,1.566,7.981,7.981,0,0,0,0,4,4.462,4.462,0,0,0,.764,1.566,3.576,3.576,0,0,0,1.248,1.018,3.8,3.8,0,0,0,1.707.365,3.516,3.516,0,0,0,1.308-.218,3.191,3.191,0,0,0,1.529-1.227Q1203.071,1175.091,1203.24,1174.8Z" transform="translate(-1084.173 -1158.852)"/>
      <path id="WYNK" class="cls-2" d="M460.011,1169.939a2.911,2.911,0,0,1-.1-.664.872.872,0,0,1,.323-.716,1.362,1.362,0,0,1,.882-.262,1.16,1.16,0,0,1,.778.21,1.1,1.1,0,0,1,.323.612l1.852,8.492,1.817-8.405a.976.976,0,0,1,.489-.734,1.806,1.806,0,0,1,.786-.175,1.425,1.425,0,0,1,.743.192,1.145,1.145,0,0,1,.463.751l1.852,8.37,1.887-8.545a.914.914,0,0,1,1-.769,1.18,1.18,0,0,1,.856.288.948.948,0,0,1,.3.708,2.627,2.627,0,0,1-.1.682l-2.6,9.838a1.038,1.038,0,0,1-.507.664,1.782,1.782,0,0,1-.839.192,1.611,1.611,0,0,1-.952-.245,1.062,1.062,0,0,1-.428-.682l-1.73-7.671-1.747,7.724a.939.939,0,0,1-.472.682,1.821,1.821,0,0,1-.856.192,1.489,1.489,0,0,1-.935-.254,1.29,1.29,0,0,1-.446-.69Zm18.1,5.295-3.268-5.172a1.4,1.4,0,0,1-.245-.751.968.968,0,0,1,1.083-1.013,1.008,1.008,0,0,1,.69.21,2.237,2.237,0,0,1,.411.489l2.5,4.176,2.446-4a3.94,3.94,0,0,1,.446-.612.881.881,0,0,1,.69-.262,1.251,1.251,0,0,1,.778.245.788.788,0,0,1,.323.664,1.427,1.427,0,0,1-.061.376,1.306,1.306,0,0,1-.166.376l-3.425,5.277v4.421a1.126,1.126,0,0,1-.236.708,1.013,1.013,0,0,1-.847.306q-1.118,0-1.118-1.013Zm7.06-5.8a1.067,1.067,0,0,1,.323-.865,1.222,1.222,0,0,1,.813-.271,1.427,1.427,0,0,1,.647.148,1.632,1.632,0,0,1,.594.638l4.439,7.671v-7.444a.962.962,0,0,1,.28-.786,1.216,1.216,0,0,1,.786-.227,1.261,1.261,0,0,1,.786.227.931.931,0,0,1,.3.786v10.24a2.287,2.287,0,0,1-.035.393.921.921,0,0,1-.14.358.793.793,0,0,1-.315.262,1.308,1.308,0,0,1-.577.1,1.358,1.358,0,0,1-1.188-.734l-4.543-7.374v7.077a1.262,1.262,0,0,1-.21.716.943.943,0,0,1-.839.315,1.233,1.233,0,0,1-.856-.245,1.032,1.032,0,0,1-.262-.786Zm11.236-.157a.874.874,0,0,1,.306-.751,1.33,1.33,0,0,1,.813-.227,1.269,1.269,0,0,1,.778.227.874.874,0,0,1,.306.751v4.246l3.949-4.6a3.505,3.505,0,0,1,.446-.437.87.87,0,0,1,.568-.192.955.955,0,0,1,.411.079,1.372,1.372,0,0,1,.323.218,1.4,1.4,0,0,1,.253.341.911.911,0,0,1,.1.428,1.009,1.009,0,0,1-.1.419,1.646,1.646,0,0,1-.28.419l-2.778,3.2,3.53,5.661a.981.981,0,0,1,.157.542,1.056,1.056,0,0,1-.3.751,1.121,1.121,0,0,1-.856.315.96.96,0,0,1-.612-.192,1.807,1.807,0,0,1-.437-.524l-3.093-4.963-1.276,1.468v3.18a1.192,1.192,0,0,1-.227.716.994.994,0,0,1-.856.315,1.233,1.233,0,0,1-.856-.245,1.032,1.032,0,0,1-.262-.786Z" transform="translate(-437.107 -1161.245)"/>
      <g id="wynk-logo" transform="translate(0 0)">
        <g id="Group_469" data-name="Group 469">
          <path id="Fill-4" class="cls-2" d="M169.137,1134.4l-.12,1.095a8.184,8.184,0,1,1-5.5-2.146,8.074,8.074,0,0,1,2.486.392l.1-.9a9.246,9.246,0,0,0-2.624-.378,9.11,9.11,0,0,0-9.156,9.084,9.3,9.3,0,0,0,9.192,9.116,9.172,9.172,0,0,0,9.124-9.116,9.029,9.029,0,0,0-3.5-7.146" transform="translate(-152.036 -1127.864)"/>
          <path id="Fill-6" class="cls-2" d="M202.678,1170.387l-.2,1.774a5.436,5.436,0,0,1,.516,2.3,5.7,5.7,0,0,1-5.618,5.613,5.638,5.638,0,0,1-5.618-5.613,5.7,5.7,0,0,1,5.618-5.613,5.441,5.441,0,0,1,2.2.466l.13-1.147a6.468,6.468,0,0,0-2.327-.435,6.678,6.678,0,1,0,6.716,6.665,6.563,6.563,0,0,0-1.417-4.011" transform="translate(-185.923 -1160.721)"/>
          <path id="Fill-1" class="cls-2" d="M121.844,1110.482a10.6,10.6,0,0,1,10.521-10.634h.1v-.737h-.1a11.371,11.371,0,0,0-11.349,11.371Z" transform="translate(-121.016 -1097.111)"/>
          <path id="Fill-8" class="cls-2" d="M251.152,1069.939l-1.3,11.572a4.1,4.1,0,0,0-3.623-.654,2.652,2.652,0,0,0-2.164,2.453A3.14,3.14,0,0,0,247,1086.2c2.912.388,3.674-1.4,3.792-2.018.155-.6.874-7.273.874-7.273l.388-3.656a4.777,4.777,0,0,1,3.027.888,2.448,2.448,0,0,1,.432,2.646c-.142.415-.475.812-.057.681a2.758,2.758,0,0,0,1.193-1.692,3.128,3.128,0,0,0-1.3-2.814c-.194-.194-1.848-1.179-2.126-1.456a2.05,2.05,0,0,1-.689-1.327Z" transform="translate(-235.632 -1069.939)"/>
        </g>
      </g>
    </g>
  </g>
</svg>
