
<svg xmlns="http://www.w3.org/2000/svg" width="144" height="144" viewBox="0 0 144 144">
    <defs>
        <style>
            .cls-1{fill:#e50019}.cls-2{fill:#fff}
        </style>
    </defs>
    <g id="Fab_Icon_144" data-name="Fab Icon 144" transform="translate(-38 -27)">
        <rect id="Rectangle_283" width="144" height="144" class="cls-1" data-name="Rectangle 283" rx="8" transform="translate(38 27)"/>
        <g id="wynk-logo" transform="translate(65 50.625)">
            <g id="Group_469" data-name="Group 469">
                <path id="Fill-4" d="M216.29 1140.563l-.5 4.579a34.23 34.23 0 1 1-23.022-8.975 33.779 33.779 0 0 1 10.4 1.637l.426-3.765a38.676 38.676 0 0 0-10.973-1.582 38.1 38.1 0 0 0-38.295 37.992c0 20.685 17.741 38.125 38.444 38.125a38.36 38.36 0 0 0 38.159-38.125 37.763 37.763 0 0 0-14.633-29.887" class="cls-2" transform="translate(-144.769 -1113.244)"/>
                <path id="Fill-6" d="M240.795 1178.832l-.816 7.42a22.732 22.732 0 0 1 2.159 9.621 23.835 23.835 0 0 1-23.5 23.477 23.58 23.58 0 0 1-23.5-23.477 23.835 23.835 0 0 1 23.5-23.476 22.762 22.762 0 0 1 9.182 1.95l.542-4.8a27.044 27.044 0 0 0-9.731-1.817 27.931 27.931 0 1 0 28.088 27.875 27.45 27.45 0 0 0-5.927-16.778" class="cls-2" transform="translate(-170.716 -1138.404)"/>
                <path id="Fill-1" d="M124.477 1146.667c0-24.335 19.647-44.475 44-44.475h.406v-3.08h-.406c-26.386 0-47.2 21.27-47.465 47.555z" class="cls-2" transform="translate(-121.016 -1090.746)"/>
                <path id="Fill-8" d="M273.691 1069.939l-5.419 48.4a17.158 17.158 0 0 0-15.151-2.737c-8.332 2.4-9.046 8.768-9.052 10.26-.012 2.839 2.122 10.469 12.271 12.091 12.179 1.622 15.366-5.842 15.86-8.441.647-2.53 3.654-30.419 3.654-30.419l1.624-15.292s8.6-.344 12.661 3.712 2.46 9.156 1.806 11.067c-.593 1.735-1.985 3.4-.238 2.85 1.218-.406 4.42-3.794 4.992-7.077.925-7.118-4.607-10.958-5.418-11.769s-7.73-4.929-8.89-6.09c-1.035-1.034-2.882-3.118-2.882-5.551z" class="cls-2" transform="translate(-208.78 -1069.939)"/>
            </g>
        </g>
    </g>
</svg>
